<svg xmlns="http://www.w3.org/2000/svg" viewBox="0 0 32 32">
  <rect width="32" height="32" rx="8" fill="#ec4899" />
  <g fill="none" stroke="#ffffff" stroke-width="2" stroke-linecap="round" stroke-linejoin="round" transform="translate(4, 4)">
    <path d="M12 2a2 2 0 0 1 2 2 2 2 0 0 1-2 2 2 2 0 0 1-2-2 2 2 0 0 1 2-2z"/>
    <path d="M19 8H5a2 2 0 0 0-2 2v9a2 2 0 0 0 2 2h14a2 2 0 0 0 2-2v-9a2 2 0 0 0-2-2z"/>
    <path d="M9 13v2"/>
    <path d="M15 13v2"/>
    <path d="M2 13h2"/>
    <path d="M20 13h2"/>
  </g>
</svg>
